<?xml version="1.0" standalone="no"?>
<!DOCTYPE svg PUBLIC "-//W3C//DTD SVG 20010904//EN"
 "http://www.w3.org/TR/2001/REC-SVG-20010904/DTD/svg10.dtd">
<svg version="1.0" xmlns="http://www.w3.org/2000/svg" width="100" height="50" viewBox="0 0 400.000000 200.000000"
 preserveAspectRatio="xMidYMid meet">

<g transform="translate(0.000000,200.000000) scale(0.100000,-0.100000)"
fill="currentColor" stroke="none">
<path d="M542 1681 c-311 -77 -532 -356 -532 -673 0 -380 279 -680 655 -705
246 -16 490 107 626 315 141 215 153 462 36 702 -33 68 -58 102 -127 171 -70
71 -101 94 -180 133 -52 25 -126 53 -165 61 -93 19 -223 18 -313 -4z m235
-283 c23 -23 28 -37 31 -95 2 -38 8 -79 15 -91 17 -35 58 -52 124 -52 68 0 99
-17 119 -66 20 -48 20 -411 0 -459 -27 -64 -41 -66 -372 -63 l-296 3 -29 33
-29 32 0 355 c0 242 4 362 11 379 22 48 58 57 236 54 162 -3 163 -3 190 -30z"/>
<path d="M482 1044 c-12 -8 -22 -25 -22 -37 0 -30 207 -247 235 -247 29 0 245
219 245 247 0 20 -33 53 -54 53 -4 0 -48 -39 -97 -87 l-89 -87 -89 87 c-49 48
-93 87 -97 87 -5 0 -20 -7 -32 -16z"/>
<path d="M1580 1253 c-38 -14 -40 -30 -40 -310 0 -259 1 -273 19 -283 11 -5
32 -10 48 -10 56 0 58 5 63 187 l5 168 40 -74 c64 -118 83 -119 150 -8 22 37
43 67 48 67 4 0 7 -71 7 -158 0 -110 4 -162 12 -170 16 -16 80 -16 96 0 9 9
12 87 12 290 l0 278 -25 16 c-32 21 -89 11 -111 -19 -9 -12 -36 -57 -60 -99
-25 -43 -48 -78 -53 -78 -4 0 -29 38 -54 84 -26 45 -55 90 -65 99 -20 19 -69
29 -92 20z"/>
<path d="M2163 1250 l-23 -9 0 -284 c0 -207 3 -286 12 -295 8 -8 52 -12 133
-12 105 0 126 3 165 23 87 43 105 101 99 324 -5 154 -20 194 -90 233 -38 21
-58 24 -159 27 -63 2 -125 -1 -137 -7z m232 -125 c24 -23 25 -28 25 -175 0
-181 -5 -190 -95 -190 l-55 0 0 195 0 195 50 0 c41 0 56 -5 75 -25z"/>
<path d="M2760 1249 c-53 -16 -90 -48 -111 -93 -16 -35 -19 -66 -19 -206 0
-185 11 -228 68 -268 99 -71 266 -43 316 53 19 36 21 57 21 215 0 205 -10 237
-84 278 -48 27 -138 37 -191 21z m125 -124 c24 -23 25 -28 25 -175 0 -147 -1
-152 -25 -175 -43 -44 -108 -27 -124 32 -14 49 -14 237 0 286 16 59 81 76 124
32z"/>
<path d="M3242 1246 c-103 -34 -121 -79 -122 -294 0 -220 20 -267 128 -298
108 -32 226 9 263 89 35 79 18 131 -44 131 -43 0 -67 -18 -67 -51 0 -31 -42
-73 -73 -73 -13 0 -36 9 -51 21 l-26 20 0 159 0 159 26 20 c51 40 106 18 124
-49 9 -34 15 -40 45 -46 25 -4 43 -1 61 11 24 15 26 22 21 62 -3 25 -14 57
-24 72 -48 64 -172 96 -261 67z"/>
<path d="M3696 1246 c-100 -37 -139 -147 -87 -243 16 -30 63 -64 148 -107 40
-20 77 -45 83 -57 19 -34 4 -66 -35 -79 -43 -14 -82 -6 -126 26 -41 30 -73 31
-93 2 -25 -35 -19 -63 17 -95 70 -62 219 -71 298 -18 92 60 105 199 26 278
-18 17 -72 51 -119 74 -93 45 -113 70 -83 103 26 29 77 33 140 11 56 -20 56
-20 76 0 28 28 25 75 -7 96 -36 23 -184 29 -238 9z"/>
</g>
</svg>
