<svg xmlns="http://www.w3.org/2000/svg" height="40" viewBox="0 96 960 960" width="40"><path d="M480.282 917.479q-27.253 0-46.586-19.308-19.333-19.309-19.333-46.424 0-26.838 19.281-46.473 19.281-19.635 46.357-19.635 27.535 0 46.586 19.659 19.05 19.658 19.05 46.587 0 26.928-19.051 46.261-19.052 19.333-46.304 19.333Zm0-275.842q-27.253 0-46.586-19.281t-19.333-46.357q0-27.535 19.281-46.586 19.281-19.05 46.357-19.05 27.535 0 46.586 19.051 19.05 19.052 19.05 46.304 0 27.253-19.051 46.586-19.052 19.333-46.304 19.333Zm0-275.276q-27.253 0-46.586-19.495-19.333-19.494-19.333-46.869t19.281-46.614q19.281-19.239 46.357-19.239 27.535 0 46.586 19.333 19.05 19.334 19.05 46.709 0 27.375-19.051 46.775-19.052 19.4-46.304 19.4Z"/></svg>